<?xml version="1.0" encoding="utf-8"?>
<!-- Generator: Adobe Illustrator 27.0.1, SVG Export Plug-In . SVG Version: 6.00 Build 0)  -->
<svg version="1.1" id="Laag_1" xmlns="http://www.w3.org/2000/svg" xmlns:xlink="http://www.w3.org/1999/xlink" x="0px" y="0px"
	 viewBox="0 0 745.2 287.4" style="enable-background:new 0 0 745.2 287.4;" xml:space="preserve">
<style type="text/css">
	.st0{enable-background:new    ;}
	.st1{fill:#FF7D23;}
	.st2{fill:none;stroke:#FF7D23;}
	.st3{fill:none;stroke:#FF7D23;stroke-width:3;}
	.st4{fill:#F7A491;}
	.st5{fill:#FFFFFF;}
	.st6{fill:#13375B;}
	.st7{fill:#355389;}
	.st8{fill:#F8A492;}
	.st9{fill:#B94838;}
	.st10{fill:#F47458;}
	.st11{fill:#0037D3;}
	.st12{fill:#FFB9AB;}
	.st13{fill:#1A73ED;}
	.st14{fill:#B75742;}
</style>
<g>
	<g>
		<g class="st0">
			<path class="st1" d="M64.7,60.1v3.1c0,13.4-8.9,22.4-22.2,22.4h-42v-84h39.2c13.3,0,22.2,8.6,22.2,21.6v2.9
				c0,7.6-4,13.6-10.3,15.7C59.5,43.3,64.7,50.3,64.7,60.1z M22.3,18.3v17.3h9.8c5,0,7.8-3.1,7.8-7.8v-1.8c0-4.9-3.1-7.7-7.8-7.7
				H22.3z M42.7,58.7c0-5.5-3.2-8.6-8.2-8.6H22.3v19.2h12.2c5.2,0,8.2-3.5,8.2-8.6V58.7z"/>
			<path class="st1" d="M74.9,58V1.7h22v54c0,7.2,4.6,11.3,11.3,11.3h0.7c7.1,0,11.2-4.4,11.2-11.3v-54h22V58
				c0,17.4-13.2,28.9-32.8,28.9h-1.6C88.1,86.9,74.9,75.4,74.9,58z"/>
			<path class="st1" d="M155.1,1.7h21.8v84h-21.8V1.7z"/>
			<path class="st1" d="M246.7,66.9v18.8h-55.9v-84h21.8v65.2H246.7z"/>
			<path class="st1" d="M321.9,31.2v25.6c0,17.4-12.6,28.9-31.7,28.9h-34.4v-84h34.4C309.3,1.7,321.9,13.3,321.9,31.2z M299.4,35.2
				c0-8.8-4.2-13.7-10.4-13.7h-11.4v44.4H289c6.6,0,10.4-5,10.4-12.6V35.2z"/>
			<path class="st1" d="M333,1.7h21.8v84H333V1.7z"/>
			<path class="st1" d="M435.9,1.7v84h-20.4L398.8,55c-3.4-6.2-6.6-12.4-9.7-18.5v49.2h-20.3v-84h21.1l16.4,31.1l9.1,17.8V1.7H435.9
				z"/>
			<path class="st1" d="M515.2,40.2v16.7c0,19.3-12,30-31.1,30h-5.9C459.4,86.9,447,75.4,447,58V30c0-17.8,12.6-29.5,31.7-29.5h5.5
				c19.1,0,30.6,10.4,30.6,29.4h-22.4c0-7.4-4.1-9.5-9.2-9.5h-3c-7.3,0-10.7,5.4-10.7,13.4v20.6c0,8.5,4,12.5,10.3,12.5h4.6
				c7.1,0,9.6-3.7,9.6-10.1v-1.8h-11.8V40.2H515.2z"/>
		</g>
		<g class="st0">
			<path class="st2" d="M64.7,60.1v3.1c0,13.4-8.9,22.4-22.2,22.4h-42v-84h39.2c13.3,0,22.2,8.6,22.2,21.6v2.9
				c0,7.6-4,13.6-10.3,15.7C59.5,43.3,64.7,50.3,64.7,60.1z M22.3,18.3v17.3h9.8c5,0,7.8-3.1,7.8-7.8v-1.8c0-4.9-3.1-7.7-7.8-7.7
				H22.3z M42.7,58.7c0-5.5-3.2-8.6-8.2-8.6H22.3v19.2h12.2c5.2,0,8.2-3.5,8.2-8.6V58.7z"/>
			<path class="st2" d="M74.9,58V1.7h22v54c0,7.2,4.6,11.3,11.3,11.3h0.7c7.1,0,11.2-4.4,11.2-11.3v-54h22V58
				c0,17.4-13.2,28.9-32.8,28.9h-1.6C88.1,86.9,74.9,75.4,74.9,58z"/>
			<path class="st2" d="M155.1,1.7h21.8v84h-21.8V1.7z"/>
			<path class="st2" d="M246.7,66.9v18.8h-55.9v-84h21.8v65.2H246.7z"/>
			<path class="st2" d="M321.9,31.2v25.6c0,17.4-12.6,28.9-31.7,28.9h-34.4v-84h34.4C309.3,1.7,321.9,13.3,321.9,31.2z M299.4,35.2
				c0-8.8-4.2-13.7-10.4-13.7h-11.4v44.4H289c6.6,0,10.4-5,10.4-12.6V35.2z"/>
			<path class="st2" d="M333,1.7h21.8v84H333V1.7z"/>
			<path class="st2" d="M435.9,1.7v84h-20.4L398.8,55c-3.4-6.2-6.6-12.4-9.7-18.5v49.2h-20.3v-84h21.1l16.4,31.1l9.1,17.8V1.7H435.9
				z"/>
			<path class="st2" d="M515.2,40.2v16.7c0,19.3-12,30-31.1,30h-5.9C459.4,86.9,447,75.4,447,58V30c0-17.8,12.6-29.5,31.7-29.5h5.5
				c19.1,0,30.6,10.4,30.6,29.4h-22.4c0-7.4-4.1-9.5-9.2-9.5h-3c-7.3,0-10.7,5.4-10.7,13.4v20.6c0,8.5,4,12.5,10.3,12.5h4.6
				c7.1,0,9.6-3.7,9.6-10.1v-1.8h-11.8V40.2H515.2z"/>
		</g>
	</g>
	<g>
		<g class="st0">
			<path class="st1" d="M68.1,221.5H45.3v64.2H23.4v-64.2H0.5v-19.8h67.6V221.5z"/>
			<path class="st1" d="M97.6,220.5v13.7h28.9v18.2H97.6v14.4h34.8v18.8H75.7v-84h56.6v18.8H97.6z"/>
			<path class="st1" d="M138.6,258v-28c0-17.8,12.6-29.5,31.7-29.5h4.9c19.1,0,30.6,10.4,30.6,29.4h-22.6c0-7.4-4-9.5-9.2-9.5h-2.3
				c-7.3,0-10.7,5.4-10.7,13.4v20.6c0,8.5,4,12.5,10.7,12.5h2.3c6.7,0,9.4-3,9.4-8.6h22.4c0,18.5-12,28.6-30.6,28.6h-4.9
				C151,286.9,138.6,275.4,138.6,258z"/>
			<path class="st1" d="M284.3,201.7v84h-22v-32.6h-24.2v32.6h-21.8v-84h21.8v31.6h24.2v-31.6H284.3z"/>
			<path class="st1" d="M365.3,201.7v84h-20.4L328.2,255c-3.4-6.2-6.6-12.4-9.7-18.5v49.2h-20.3v-84h21.1l16.4,31.1l9.1,17.8v-48.8
				H365.3z"/>
			<path class="st1" d="M376.5,258v-28c0-17.8,12.6-29.5,31.7-29.5h6.7c19.1,0,31.8,11.5,31.8,29.5v28c0,17.4-12.7,28.9-31.8,28.9
				h-6.7C389.1,286.9,376.5,275.4,376.5,258z M413.8,267c7,0,10.3-4.9,10.3-12.5v-20.6c0-9-4.1-13.4-10.3-13.4h-4.2
				c-7.1,0-10.7,5.4-10.7,13.4v20.6c0,8.4,4.3,12.5,10.7,12.5H413.8z"/>
			<path class="st1" d="M513.6,266.9v18.8h-55.9v-84h21.8v65.2H513.6z"/>
			<path class="st1" d="M520.5,258v-28c0-17.8,12.6-29.5,31.7-29.5h6.7c19.1,0,31.8,11.5,31.8,29.5v28c0,17.4-12.7,28.9-31.8,28.9
				h-6.7C533.1,286.9,520.5,275.4,520.5,258z M557.8,267c7,0,10.3-4.9,10.3-12.5v-20.6c0-9-4.1-13.4-10.3-13.4h-4.2
				c-7.1,0-10.7,5.4-10.7,13.4v20.6c0,8.4,4.3,12.5,10.7,12.5H557.8z"/>
			<path class="st1" d="M667.1,240.2v16.7c0,19.3-12,30-31.1,30h-5.9c-18.8,0-31.2-11.5-31.2-28.9v-28c0-17.8,12.6-29.5,31.7-29.5
				h5.5c19.1,0,30.6,10.4,30.6,29.4h-22.4c0-7.4-4.1-9.5-9.2-9.5h-3c-7.3,0-10.7,5.4-10.7,13.4v20.6c0,8.5,4,12.5,10.3,12.5h4.6
				c7.1,0,9.6-3.7,9.6-10.1v-1.8h-11.8v-14.9H667.1z"/>
			<path class="st1" d="M717.5,253.5v32.2h-21.8v-32.5l-26.8-51.5h22.8l10.1,21.4c1.8,3.8,3.5,7.8,5.2,11.8c1.6-4,3.2-7.9,4.9-11.8
				l9.7-21.4h22.8L717.5,253.5z"/>
		</g>
		<g class="st0">
			<path class="st2" d="M68.1,221.5H45.3v64.2H23.4v-64.2H0.5v-19.8h67.6V221.5z"/>
			<path class="st2" d="M97.6,220.5v13.7h28.9v18.2H97.6v14.4h34.8v18.8H75.7v-84h56.6v18.8H97.6z"/>
			<path class="st2" d="M138.6,258v-28c0-17.8,12.6-29.5,31.7-29.5h4.9c19.1,0,30.6,10.4,30.6,29.4h-22.6c0-7.4-4-9.5-9.2-9.5h-2.3
				c-7.3,0-10.7,5.4-10.7,13.4v20.6c0,8.5,4,12.5,10.7,12.5h2.3c6.7,0,9.4-3,9.4-8.6h22.4c0,18.5-12,28.6-30.6,28.6h-4.9
				C151,286.9,138.6,275.4,138.6,258z"/>
			<path class="st2" d="M284.3,201.7v84h-22v-32.6h-24.2v32.6h-21.8v-84h21.8v31.6h24.2v-31.6H284.3z"/>
			<path class="st2" d="M365.3,201.7v84h-20.4L328.2,255c-3.4-6.2-6.6-12.4-9.7-18.5v49.2h-20.3v-84h21.1l16.4,31.1l9.1,17.8v-48.8
				H365.3z"/>
			<path class="st2" d="M376.5,258v-28c0-17.8,12.6-29.5,31.7-29.5h6.7c19.1,0,31.8,11.5,31.8,29.5v28c0,17.4-12.7,28.9-31.8,28.9
				h-6.7C389.1,286.9,376.5,275.4,376.5,258z M413.8,267c7,0,10.3-4.9,10.3-12.5v-20.6c0-9-4.1-13.4-10.3-13.4h-4.2
				c-7.1,0-10.7,5.4-10.7,13.4v20.6c0,8.4,4.3,12.5,10.7,12.5H413.8z"/>
			<path class="st2" d="M513.6,266.9v18.8h-55.9v-84h21.8v65.2H513.6z"/>
			<path class="st2" d="M520.5,258v-28c0-17.8,12.6-29.5,31.7-29.5h6.7c19.1,0,31.8,11.5,31.8,29.5v28c0,17.4-12.7,28.9-31.8,28.9
				h-6.7C533.1,286.9,520.5,275.4,520.5,258z M557.8,267c7,0,10.3-4.9,10.3-12.5v-20.6c0-9-4.1-13.4-10.3-13.4h-4.2
				c-7.1,0-10.7,5.4-10.7,13.4v20.6c0,8.4,4.3,12.5,10.7,12.5H557.8z"/>
			<path class="st2" d="M667.1,240.2v16.7c0,19.3-12,30-31.1,30h-5.9c-18.8,0-31.2-11.5-31.2-28.9v-28c0-17.8,12.6-29.5,31.7-29.5
				h5.5c19.1,0,30.6,10.4,30.6,29.4h-22.4c0-7.4-4.1-9.5-9.2-9.5h-3c-7.3,0-10.7,5.4-10.7,13.4v20.6c0,8.5,4,12.5,10.3,12.5h4.6
				c7.1,0,9.6-3.7,9.6-10.1v-1.8h-11.8v-14.9H667.1z"/>
			<path class="st2" d="M717.5,253.5v32.2h-21.8v-32.5l-26.8-51.5h22.8l10.1,21.4c1.8,3.8,3.5,7.8,5.2,11.8c1.6-4,3.2-7.9,4.9-11.8
				l9.7-21.4h22.8L717.5,253.5z"/>
		</g>
	</g>
	<g class="st0">
		<path class="st3" d="M65.7,159.1v3.1c0,13.4-8.9,22.4-22.2,22.4h-42v-84h39.2c13.3,0,22.2,8.6,22.2,21.6v2.9
			c0,7.6-4,13.6-10.3,15.7C60.5,142.3,65.7,149.3,65.7,159.1z M23.3,117.3v17.3h9.8c5,0,7.8-3.1,7.8-7.8v-1.8c0-4.9-3.1-7.7-7.8-7.7
			H23.3z M43.7,157.7c0-5.5-3.2-8.6-8.2-8.6H23.3v19.2h12.2c5.2,0,8.2-3.5,8.2-8.6V157.7z"/>
		<path class="st3" d="M100.9,119.5v13.7h28.9v18.2h-28.9v14.4h34.8v18.8H79v-84h56.6v18.8H100.9z"/>
		<path class="st3" d="M191.1,152.5v32.2h-21.8v-32.5l-26.8-51.5h22.8l10.1,21.4c1.8,3.8,3.5,7.8,5.2,11.8c1.6-4,3.2-7.9,4.9-11.8
			l9.7-21.4H218L191.1,152.5z"/>
		<path class="st3" d="M221.2,157v-28c0-17.8,12.6-29.5,31.7-29.5h6.7c19.1,0,31.8,11.5,31.8,29.5v28c0,17.4-12.7,28.9-31.8,28.9
			h-6.7C233.8,185.9,221.2,174.4,221.2,157z M258.5,166c7,0,10.3-4.9,10.3-12.5v-20.6c0-9-4.1-13.4-10.3-13.4h-4.2
			c-7.1,0-10.7,5.4-10.7,13.4v20.6c0,8.4,4.3,12.5,10.7,12.5H258.5z"/>
		<path class="st3" d="M371.8,100.7v84h-20.4L334.7,154c-3.4-6.2-6.6-12.4-9.7-18.5v49.2h-20.3v-84h21.1l16.4,31.1l9.1,17.8v-48.8
			H371.8z"/>
		<path class="st3" d="M454.1,130.2v25.6c0,17.4-12.6,28.9-31.7,28.9H388v-84h34.4C441.5,100.7,454.1,112.3,454.1,130.2z
			 M431.7,134.2c0-8.8-4.2-13.7-10.4-13.7h-11.4v44.4h11.4c6.6,0,10.4-5,10.4-12.6V134.2z"/>
	</g>
</g>
<g>
	<path class="st4" d="M2468.8,213.7c0,0-0.3-0.2-0.9-0.6c-2.7-1.8-11-7.3-17-7.9c-7.2-0.7-15.1,0.4-15.1,0.4l12.3,14L2468.8,213.7z"
		/>
	<g>
		<path class="st4" d="M2166.2,627.1l1,35.6l42.8-7.6c0,0,28.5-30.8,65.8-72.1c-16.9-11.3-34.8-21.5-52.6-31.8
			C2195,594.5,2166.2,627.1,2166.2,627.1z"/>
		<path class="st5" d="M2210.3,653.3c0,0-24-1.4-28.1-6.8c-4.1-5.4-11.4-20.1-19.4-21.2c-8-1.1-30,14.9-33.8,22.6
			c-4,8.1-5.5,19.5-1.4,25c4.2,5.5,82.3,78,99.3,86.9c16.9,8.9,34.6-1.5,25.4-21C2243.1,719.2,2222.2,654.9,2210.3,653.3z"/>
	</g>
	<path class="st6" d="M2141.3,141.8c0,0,344.2,109.9,342,155.2c-5.2,106-249.6,343.1-249.6,343.1l-50.8-33.8l150-268.4
		c0,0-154.7-43.7-167-56C2153.6,269.5,2141.3,141.8,2141.3,141.8z"/>
	<g>
		<path class="st4" d="M2341.7,798.2l26,27.9l19.9-38.7c0,0-7.3-41.3-17.7-96.1c-19.2,6.7-38.1,14.7-57.1,22.7
			C2330.2,762.6,2341.7,798.2,2341.7,798.2z"/>
		<path class="st5" d="M2387.9,783.9c0,0-19.1,9.5-25.9,9.5s-16.7-6.4-22.4-0.7c-5.7,5.7-9,45-5.2,52.6c4,8.1,12.1,16.2,19.1,16.2
			c6.9,0,131.1-24.8,148.5-32.9c17.3-8.1,9-25.9-12.1-30.4C2468.7,793.7,2396.3,775.4,2387.9,783.9z"/>
	</g>
	<path class="st7" d="M2200,152.7l-104.8-37c0,0-77.8,69.3-63.6,115.5c14.3,46.2,185.3,272.7,185.3,272.7s84,197.9,109.3,268.5
		c19-8,46-18.8,65.2-25.4c-18-94.7-60.8-298.6-60.8-298.6l-118.9-241.6L2200,152.7z"/>
	<path class="st8" d="M2445.3-481c3,23.8,6.8,22.3,7.1,25.4c0.4,3.6-21.4,47.3-21.4,47.3s-63.3,129.2-67,136.1l-112.7,95l29.2,70.2
		c0,0,119.9-106.7,125.3-113.4c5.3-6.7,71.3-191.3,77.6-207.4c0,0,14.4-16.4,23.1-27c8.7-10.6,12.4-24.6,14.4-27.9
		c0.3-0.5,6.4-12.1,10.1-28.4c3.3-14-6.1-2.2-6.1-2.2s-10.6,24.9-12.3,23.8c-1.4-0.9,5.2-14.2,9-29.7c1-4,1.9-7.9,2.7-11.5
		c2.2-9.5-2.8-13.5-6.7-3.9c-1.4,3.4-3.5,9.1-4.4,13.3c-1,4.6-3.4,8.5-4.9,12.2c-2.9,7.4-4.9,12.9-5.1,12.6c-0.3-0.4-1.9,0.7-1-3.5
		c1.1-5.1,5.7-15.5,6.7-23.1c0.6-4.3,2.3-13.3,2.3-13.3s0.2-14.1-0.6-14.3c-4.3-1.5-7.1,8.1-7.1,14.1c-1.9,3.8-3.5,13.3-3.5,13.3
		s-7.4,18.5-9.9,17.5c-1.1-0.4,2.1-12.3,3.5-24.5c1.3-11.3,0.8-22.9-1.4-23.4c-3.6-1-6.3,11.4-6.3,11.4s-1.5,8.8-2.1,11.7
		c-0.8,3.4-4,13.3-4,13.3s-12.7,34.1-15,32.9c-2.3-1.2-7.1-6.6-7.1-9c0.1-2.4,2.5-6.7,2.5-9.1c0.1-2.4-1.8-5.5-4.6-5.8
		c-2.8-0.3-7.5,11.1-7.5,11.1S2444.4-487.9,2445.3-481z"/>
	<path class="st9" d="M2321.9-246.9c-4.4-1.1-123.3,71.6-124.7,99.8c-1.5,28.2,39.3,73.1,73.3,55c34-18.2,103.4-91.1,103.4-91.1
		S2336.3-243.4,2321.9-246.9z"/>
	<path class="st10" d="M2263.1-183.2c1.1,1.1,31.1,44.6,22.5,159.4c-6.7,89.3-23.2,205.9-39.5,210.8
		c-130.8,39.4-207.9-3.9-207.9-3.9s30.4-280.4,60.3-341.5c12.5-25.4,49.2-36.6,78.1-41.1C2183.1-200.5,2237.6-208.6,2263.1-183.2z"
		/>
	<path class="st11" d="M2127.2-179.2c-72.6-20.3-146.5,69.4-137.8,82.6c-53.4,80.8-52,132.3-61.4,184.1
		c-9.4,51.8,27.7,61.3,76.1,69.2c48.4,7.9,60.7-47.6,68.5-96.7C2080.3,10.9,2132.4-170.1,2127.2-179.2z"/>
	<path class="st12" d="M1989.4-96.6c39.9,9.3,93.6,15.6,108.7-61.2c-11.7,80.5-58.3,71.7-75.4,73
		C2005.6-83.5,1989.4-96.6,1989.4-96.6z"/>
	<path class="st13" d="M1959,24.4c-8,25.4-22.3,79.3-6.9,88.4c15.3,9.1,55.1,17,62.3-4.9c7.2-22,13.3-72.5,13.3-72.5
		C1986,39.7,1959,24.4,1959,24.4z"/>
	<path class="st12" d="M1963.7,61.3c14.3,6.5,40.3,12.3,50.9,4c5.2-4.1,9.6-10.5,11.2-16.2c0.7-6.7-0.5-12-0.2-10.2
		c-41.6,4.4-67.3-10.2-67.3-10.2C1957.5,38.3,1949.4,54.9,1963.7,61.3z"/>
	<path class="st13" d="M1965.7,57.7c14.3,6.5,40.3,12.3,50.9,4c5.2-4.1,8.1-10.8,9.7-16.5c0.8-6.1,1.3-9.9,1.3-9.9
		c-41.6,4.4-68.6-10.9-68.6-10.9C1958.1,33.9,1951.4,51.3,1965.7,57.7z"/>
	<path class="st11" d="M2098.7-176c52.8-35.3,94-18.5,109.9,65.3c-4.8,137.5-161.7,236.8-161.7,236.8l8.5-49.1
		c0,0,68.8-27.2,118.5-126c34.2-68,1.9-116.2-22.4-121.5c-20.2-4.4-53.8,3.8-53.8,3.8L2098.7-176z"/>
	<path class="st4" d="M2290,55.8c-5.8-12.1-47.5-79.6-47.5-79.6l-82.6,20.7c0,0,71.3,87.8,80.7,107.2
		c26.5,23.7,133.8,96,143.8,104.1c4.4,3.6,11.8,10.2,15.2,16.2c7.5,13.3,9.7,19.6,16.6,32.6c7.9,14.8,54.3-8.1,54.3-21.1
		c0-9-18.2-23.6-32.7-35.5C2431.2,194.9,2295.2,66.6,2290,55.8z"/>
	<path class="st4" d="M2465.6,209.8c0,0-10.1-11.1-25.7-9.8c-15.6,1.2-8,13.4-8,14c0,0.6,26.5,13.3,26.5,13.3s-5-12.9-1.4-15.1
		C2460.6,210,2465.6,209.8,2465.6,209.8z"/>
	<g>
		<g>
			<path class="st5" d="M2219.2-386c0,0-26-21-40.5,10.7c0.1-0.3-9.7-1-11.1-0.7c-5.8,1.4-11.8,6.9-17.2,9.7
				c-19,10-29.2,31.7-32,52.2c-3.3,24.9,5.4,44,20.3,63.5c4.4,5.7,9.1,11.4,15.2,15.3c7.3,4.8,13.6,2,20.7,4.4
				c5.9,2,7.5,8.6,14.8,6.9c10.3-2.4,21.9-14,34.1-11.1c12.2,2.9,41.8-5.8,41.9-5.8c38-11.2,19.2-84.5,14.4-110.3
				C2275.3-375.6,2242.7-392.7,2219.2-386z"/>
			<path class="st4" d="M2238.6-221.5l7.3,26.9l3.9,15c0,0-1.9,26.1-8.5,32.3c-11.5,10.7-50.8-36-50.8-36l-6.6-83.1L2238.6-221.5z"
				/>
			<path class="st10" d="M2186-239.5c14.2,26.8,41.4,40.8,60,45.1l-7.4-27.1l-54.7-45L2186-239.5z"/>
			<path class="st4" d="M2202.3-349.7c23.1-11.5,50.9,1.1,57.9,25.5c3,10.6,6.3,24,8.5,38.9c5.4,35.7-8.5,73-24.7,75.2
				c-16.3,2.2-64.2-15-72.6-65.6C2166.2-307,2178.1-337.6,2202.3-349.7z"/>
			<path class="st4" d="M2183.9-273.3c1,7.9-3.3,15-9.8,15.8c-6.5,0.9-12.5-4.8-13.6-12.7c-1-7.9,3.3-15,9.8-15.8
				C2176.7-286.9,2182.8-281.2,2183.9-273.3z"/>
		</g>
		<path class="st5" d="M2231.9-254.6c0,0-21.6,5.1-24,12.6c-2.4,7.6-0.8,19,8.8,28.4c9.6,9.5,32,6.1,38.4,1.8
			c6.4-4.2,12.7-23.8,7.6-35.5C2257.8-258.9,2231.9-254.6,2231.9-254.6z"/>
		<path class="st4" d="M2223.7-239c0,0-0.6,8.6,2.1,10.4c2.7,1.7,6.1,3.3,9.3,3.9c5.2,1,10.2-0.9,13.3-4.7c0.3-0.4,0.6-0.8,0.8-1.2
			c2.5-4.1,3.6-11.6,3.6-11.6s-8.7-2.9-13.9-2.5C2233.8-244.4,2223.7-239,2223.7-239z"/>
	</g>
	<path class="st14" d="M2119.6-177.1c-20.8,14.6-31.3,35.9-3.7,101.6c27.6,65.6,58.4,111.1,58.4,111.1s63.5-5.4,94.3-44.1
		C2268.6-8.5,2191-227.4,2119.6-177.1z"/>
</g>
</svg>
